<svg width="395" height="238" viewBox="0 0 395 238" fill="none" xmlns="http://www.w3.org/2000/svg">
<path d="M189.306 117.939L108.692 25.013C120.994 14.5009 136.967 9.26944 153.128 10.4598C161.195 11.0342 169.069 13.1936 176.297 16.8143C183.527 20.4351 189.967 25.4454 195.248 31.557C205.899 43.8252 211.252 59.7953 210.139 75.9798C209.026 92.1644 201.536 107.249 189.306 117.939Z" fill="url(#paint0_linear_17_247)"/>
<path d="M112.865 215.811L25.7661 128.948L18.0575 121.278C12.3332 115.578 7.79198 108.808 4.69355 101.355C1.59512 93.9025 0 85.9139 0 77.8464C0 69.7788 1.59512 61.7904 4.69355 54.338C7.79198 46.8856 12.3332 40.1154 18.0575 34.4148C23.7699 28.7016 30.5571 24.1703 38.0307 21.0811C45.5042 17.992 53.517 16.4057 61.607 16.4138C69.6915 16.4066 77.6969 17.9935 85.1645 21.0827C92.6316 24.172 99.4141 28.7027 105.119 34.4148L112.81 42.0847C124.262 53.4822 133.349 67.0196 139.55 81.9225C145.753 96.825 148.947 112.801 148.952 128.936C148.957 145.072 145.772 161.05 139.581 175.957C133.388 190.864 124.31 204.407 112.865 215.811Z" fill="url(#paint1_linear_17_247)"/>
<path d="M186.376 182.504C186.376 183.784 186.291 184.936 186.12 185.96H160.2C160.413 188.52 161.309 190.525 162.888 191.976C164.467 193.427 166.408 194.152 168.712 194.152C172.04 194.152 174.408 192.723 175.816 189.864H185.48C184.456 193.277 182.493 196.093 179.592 198.312C176.691 200.488 173.128 201.576 168.904 201.576C165.491 201.576 162.419 200.829 159.688 199.336C157 197.8 154.888 195.645 153.352 192.872C151.859 190.099 151.112 186.899 151.112 183.272C151.112 179.603 151.859 176.381 153.352 173.608C154.845 170.835 156.936 168.701 159.624 167.208C162.312 165.715 165.405 164.968 168.904 164.968C172.275 164.968 175.283 165.693 177.928 167.144C180.616 168.595 182.685 170.664 184.136 173.352C185.629 175.997 186.376 179.048 186.376 182.504ZM177.096 179.944C177.053 177.64 176.221 175.805 174.6 174.44C172.979 173.032 170.995 172.328 168.648 172.328C166.429 172.328 164.552 173.011 163.016 174.376C161.523 175.699 160.605 177.555 160.264 179.944H177.096ZM201.876 153.64V201H192.916V153.64H201.876ZM226.473 201.576C223.059 201.576 219.987 200.829 217.257 199.336C214.526 197.8 212.371 195.645 210.793 192.872C209.257 190.099 208.489 186.899 208.489 183.272C208.489 179.645 209.278 176.445 210.857 173.672C212.478 170.899 214.675 168.765 217.449 167.272C220.222 165.736 223.315 164.968 226.729 164.968C230.142 164.968 233.235 165.736 236.009 167.272C238.782 168.765 240.958 170.899 242.537 173.672C244.158 176.445 244.969 179.645 244.969 183.272C244.969 186.899 244.137 190.099 242.472 192.872C240.851 195.645 238.633 197.8 235.817 199.336C233.043 200.829 229.929 201.576 226.473 201.576ZM226.473 193.768C228.094 193.768 229.609 193.384 231.017 192.616C232.467 191.805 233.619 190.611 234.473 189.032C235.326 187.453 235.753 185.533 235.753 183.272C235.753 179.901 234.857 177.32 233.065 175.528C231.315 173.693 229.161 172.776 226.601 172.776C224.041 172.776 221.886 173.693 220.137 175.528C218.43 177.32 217.577 179.901 217.577 183.272C217.577 186.643 218.409 189.245 220.073 191.08C221.779 192.872 223.913 193.768 226.473 193.768ZM260.501 171.048C261.653 169.171 263.146 167.699 264.981 166.632C266.858 165.565 268.992 165.032 271.381 165.032V174.44H269.013C266.197 174.44 264.064 175.101 262.613 176.424C261.205 177.747 260.501 180.051 260.501 183.336V201H251.541V165.544H260.501V171.048ZM275.112 183.144C275.112 179.56 275.816 176.381 277.224 173.608C278.675 170.835 280.616 168.701 283.048 167.208C285.523 165.715 288.275 164.968 291.304 164.968C293.949 164.968 296.253 165.501 298.216 166.568C300.221 167.635 301.821 168.979 303.016 170.6V165.544H312.04V201H303.016V195.816C301.864 197.48 300.264 198.867 298.216 199.976C296.211 201.043 293.885 201.576 291.24 201.576C288.253 201.576 285.523 200.808 283.048 199.272C280.616 197.736 278.675 195.581 277.224 192.808C275.816 189.992 275.112 186.771 275.112 183.144ZM303.016 183.272C303.016 181.096 302.589 179.24 301.736 177.704C300.883 176.125 299.731 174.931 298.28 174.12C296.829 173.267 295.272 172.84 293.608 172.84C291.944 172.84 290.408 173.245 289 174.056C287.592 174.867 286.44 176.061 285.544 177.64C284.691 179.176 284.264 181.011 284.264 183.144C284.264 185.277 284.691 187.155 285.544 188.776C286.44 190.355 287.592 191.571 289 192.424C290.451 193.277 291.987 193.704 293.608 193.704C295.272 193.704 296.829 193.299 298.28 192.488C299.731 191.635 300.883 190.44 301.736 188.904C302.589 187.325 303.016 185.448 303.016 183.272Z" fill="url(#paint2_linear_17_247)"/>
<defs>
<linearGradient id="paint0_linear_17_247" x1="148.125" y1="-60.4154" x2="171.951" y2="186.733" gradientUnits="userSpaceOnUse">
<stop stop-color="#F39AD5"/>
<stop offset="1" stop-color="#FADADD"/>
</linearGradient>
<linearGradient id="paint1_linear_17_247" x1="38.4028" y1="-7.32308" x2="104.372" y2="203.173" gradientUnits="userSpaceOnUse">
<stop stop-color="#D291BC"/>
<stop offset="1" stop-color="#FFE3EC"/>
</linearGradient>
<linearGradient id="paint2_linear_17_247" x1="204.587" y1="124.403" x2="294.328" y2="255.678" gradientUnits="userSpaceOnUse">
<stop stop-color="#D291BC"/>
<stop offset="1" stop-color="#FFE3EC"/>
</linearGradient>
</defs>
</svg>
