<svg width="198" height="201" viewBox="0 0 198 201" fill="none" xmlns="http://www.w3.org/2000/svg">
<path d="M160.132 99.6039L91.9409 21.1244C102.347 12.2466 115.859 7.82839 129.529 8.8337C136.353 9.31879 143.013 11.1425 149.128 14.2003C155.243 17.2582 160.69 21.4896 165.157 26.6511C174.167 37.012 178.695 50.4994 177.753 64.1678C176.812 77.8363 170.477 90.5755 160.132 99.6039Z" fill="url(#paint0_linear_17_252)"/>
<path d="M95.4713 182.261L21.7952 108.901L15.2746 102.424C10.4325 97.6098 6.59113 91.8924 3.97021 85.5983C1.34929 79.3042 0 72.5575 0 65.7443C0 58.9308 1.34929 52.1843 3.97021 45.8905C6.59113 39.5967 10.4325 33.879 15.2746 29.0646C20.1066 24.2396 25.8478 20.4127 32.1696 17.8038C38.4914 15.1949 45.2693 13.8553 52.1125 13.8621C58.9511 13.856 65.7227 15.1962 72.0394 17.8051C78.3558 20.4142 84.093 24.2405 88.919 29.0646L95.424 35.5421C105.112 45.1678 112.798 56.6006 118.044 69.1866C123.29 81.7723 125.992 95.265 125.996 108.891C126.001 122.519 123.307 136.013 118.069 148.602C112.831 161.192 105.152 172.629 95.4713 182.261Z" fill="url(#paint1_linear_17_252)"/>
<defs>
<linearGradient id="paint0_linear_17_252" x1="125.297" y1="-51.0231" x2="145.388" y2="157.709" gradientUnits="userSpaceOnUse">
<stop stop-color="#F39AD5"/>
<stop offset="1" stop-color="#FADADD"/>
</linearGradient>
<linearGradient id="paint1_linear_17_252" x1="32.4844" y1="-6.18461" x2="88.1246" y2="171.638" gradientUnits="userSpaceOnUse">
<stop stop-color="#D291BC"/>
<stop offset="1" stop-color="#FFE3EC"/>
</linearGradient>
</defs>
</svg>
